<svg xmlns="http://www.w3.org/2000/svg" aria-hidden="true" overflow="hidden" style="position:absolute;width:0;height:0">
  <defs/>
  <defs>
    <symbol id="icon-bell" viewBox="0 0 32 32">
      <path fill="#ff7b39" d="M18.079 2.531c4.809.969 8.459 5.241 8.459 10.324 0 5.992-.569 10.5 5.462 14.513H0c6.048-4.025 5.477-8.618 5.477-14.513 0-5.111 3.69-9.4 8.537-10.339.279-2.424 3.804-2.412 4.066.015zm2.269 25.133c-.372 2.065-2.177 3.631-4.348 3.631s-3.976-1.566-4.348-3.631h8.696z"/>
    </symbol>
    <symbol id="icon-bell-silent" viewBox="0 0 32 32">
      <path fill="#ff7b39" d="M20.485 27.528c-.367 2.041-2.151 3.589-4.297 3.589s-3.931-1.548-4.298-3.589h8.596zm-2.243-24.84c2.489.502 4.663 1.899 6.17 3.837L5.771 17.327c.057-1.395.015-2.868.015-4.436 0-5.05 3.647-9.291 8.437-10.218.276-2.396 3.759-2.384 4.018.015zm11.481 2.335l1.785 3.082L1.785 25.328 0 22.246 29.723 5.023zm-3.128 7.502c.004.122.007.245.007.367 0 5.923-.562 10.377 5.398 14.344H1.208l25.387-14.711z"/>
    </symbol>
    <symbol id="icon-facebook" viewBox="0 0 32 32">
      <path fill="#1877f2" d="M19 6h5V0h-5c-3.859 0-6.999 3.14-6.999 6.999v3h-4V16H12v16h6.001V16h5l1-6.001h-6v-3c0-.542.458-1 1-1V6z"/>
    </symbol>
    <symbol id="icon-github" viewBox="0 0 32 32">
      <path d="M15.999.399C7.164.399 0 7.562 0 16.398c0 7.07 4.584 13.065 10.941 15.181.8.148 1.094-.348 1.094-.771 0-.381-.016-1.642-.022-2.978-4.452.968-5.39-1.889-5.39-1.889-.728-1.85-1.776-2.342-1.776-2.342-1.452-.994.11-.972.11-.972 1.606.112 2.452 1.648 2.452 1.648 1.428 2.446 3.744 1.738 4.657 1.33.144-1.034.557-1.74 1.016-2.14-3.554-.403-7.29-1.776-7.29-7.907 0-1.746.626-3.174 1.648-4.294-.167-.404-.715-2.03.154-4.234 0 0 1.344-.431 4.401 1.64 1.276-.354 2.644-.532 4.003-.538 1.36.006 2.731.184 4.008.538 3.054-2.069 4.396-1.64 4.396-1.64.87 2.204.324 3.832.158 4.234 1.026 1.12 1.646 2.548 1.646 4.294 0 6.145-3.744 7.497-7.306 7.893.574.496 1.087 1.47 1.087 2.962 0 2.14-.018 3.864-.018 4.39 0 .426.288.924 1.1.768 6.354-2.118 10.932-8.114 10.932-15.179 0-8.835-7.163-15.999-16-15.999L16 .398z"/>
    </symbol>
    <symbol id="icon-linkedin" viewBox="0 0 32 32">
      <path fill="#0077b5" d="M11.429 10.286h6.323v3.242h.091c.881-1.58 3.034-3.242 6.245-3.242 6.677 0 7.912 4.155 7.912 9.561v11.011h-6.594v-9.761c0-2.327-.048-5.322-3.429-5.322-3.433 0-3.96 2.533-3.96 5.153v9.93h-6.588V10.286zM6.858 4.572c0 1.893-1.536 3.429-3.429 3.429S0 6.465 0 4.572c0-1.893 1.537-3.429 3.429-3.429s3.429 1.536 3.429 3.429zm-6.859 5.714h6.858v20.572H-.001V10.286z"/>
    </symbol>
    <symbol id="icon-twitter" viewBox="0 0 32 32">
      <path fill="#1da1f2" d="M32.001 6.076c-1.176.526-2.444.876-3.767 1.032 1.356-.812 2.393-2.099 2.888-3.631-1.267.749-2.676 1.299-4.168 1.593-1.2-1.275-2.904-2.067-4.792-2.067-3.625 0-6.561 2.937-6.561 6.56 0 .511.057 1.012.168 1.494-5.455-.276-10.291-2.888-13.528-6.861-.558.946-.888 2.084-.888 3.299v.001c0 2.275 1.155 4.287 2.917 5.46-1.075-.032-2.087-.332-2.975-.818v.082c0 3.181 2.261 5.836 5.266 6.436-.55.149-1.131.232-1.73.232-.424 0-.833-.044-1.239-.117.839 2.605 3.262 4.505 6.131 4.56-2.249 1.762-5.075 2.812-8.155 2.812-.531 0-1.049-.032-1.567-.095 2.911 1.868 6.36 2.95 10.066 2.95 12.071 0 18.678-10.003 18.678-18.677 0-.288-.006-.568-.018-.85C30.009 8.554 31.12 7.396 32 6.079l.003-.003z"/>
    </symbol>
  </defs>
</svg>
