<?xml version="1.0" encoding="UTF-8"?>
<!-- Created with Inkscape (http://www.inkscape.org/) -->
<svg width="16.934mm" height="13.756mm" version="1.1" viewBox="0 0 16.934 13.756" xmlns="http://www.w3.org/2000/svg" xmlns:cc="http://creativecommons.org/ns#" xmlns:dc="http://purl.org/dc/elements/1.1/" xmlns:rdf="http://www.w3.org/1999/02/22-rdf-syntax-ns#">
 <metadata>
  <rdf:RDF>
   <cc:Work rdf:about="">
    <dc:format>image/svg+xml</dc:format>
    <dc:type rdf:resource="http://purl.org/dc/dcmitype/StillImage"/>
    <dc:title/>
   </cc:Work>
  </rdf:RDF>
 </metadata>
 <g transform="translate(-109.33 -168.71)">
  <g transform="matrix(.026458 0 0 .026458 109.33 167.12)" clip-rule="evenodd" fill="#1da1f2" fill-rule="evenodd" image-rendering="optimizeQuality" shape-rendering="geometricPrecision">
   <path d="m640.01 121.51c-23.528 10.524-48.875 17.516-75.343 20.634 27.118-16.24 47.858-41.977 57.756-72.615-25.347 14.988-53.516 25.985-83.363 31.866-24-25.5-58.087-41.35-95.848-41.35-72.508 0-131.21 58.736-131.21 131.2 0 10.228 1.134 20.232 3.355 29.882-109.1-5.528-205.82-57.757-270.57-137.22a131.42 131.42 0 0 0-17.764 66c0 45.497 23.102 85.738 58.347 109.21-21.508-0.638-41.74-6.638-59.505-16.359v1.642c0 63.627 45.225 116.72 105.32 128.72-11.008 2.988-22.63 4.642-34.606 4.642-8.48 0-16.654-0.874-24.78-2.35 16.783 52.11 65.233 90.095 122.61 91.205-44.989 35.245-101.49 56.233-163.09 56.233-10.63 0-20.988-0.65-31.334-1.89 58.229 37.359 127.21 58.997 201.31 58.997 241.42 0 373.55-200.07 373.55-373.54 0-5.764-0.13-11.35-0.366-16.996 25.642-18.343 47.87-41.493 65.469-67.844l0.059-0.059z" fill="#1da1f2"/>
  </g>
 </g>
</svg>
