<?xml version="1.0" encoding="UTF-8" standalone="no"?><!-- Generator: Gravit.io --><svg xmlns="http://www.w3.org/2000/svg" xmlns:xlink="http://www.w3.org/1999/xlink" style="isolation:isolate" viewBox="-49 -631 512 512" width="512pt" height="512pt"><defs><clipPath id="_clipPath_Dul8azUAXFdGMP65Bb6iVpJlboNkJkWe"><rect x="-49" y="-631" width="512" height="512"/></clipPath></defs><g clip-path="url(#_clipPath_Dul8azUAXFdGMP65Bb6iVpJlboNkJkWe)"><clipPath id="_clipPath_cAOTnbVHOJBBfbEHLfcPAqu4wgtPyVBw"><rect x="-49" y="-631" width="512" height="512" transform="matrix(1,0,0,1,0,0)" fill="rgb(255,255,255)"/></clipPath><g clip-path="url(#_clipPath_cAOTnbVHOJBBfbEHLfcPAqu4wgtPyVBw)"><clipPath id="_clipPath_dbsSUCUIvgnvCqbj2uUJLMwhSbSEqDhp"><rect x="-48.5" y="-630.5" width="511" height="511" transform="matrix(1,0,0,1,0,0)" fill="rgb(255,255,255)"/></clipPath><g clip-path="url(#_clipPath_dbsSUCUIvgnvCqbj2uUJLMwhSbSEqDhp)"><path d=" M -40.758 -375 C -40.758 -511.741 70.259 -622.758 207 -622.758 C 343.741 -622.758 454.758 -511.741 454.758 -375 C 454.758 -238.259 343.741 -127.242 207 -127.242 C 70.259 -127.242 -40.758 -238.259 -40.758 -375 Z " fill="rgb(0,0,0)" vector-effect="non-scaling-stroke" stroke-width="15.969" stroke="rgb(255,123,57)" stroke-linejoin="miter" stroke-linecap="square" stroke-miterlimit="3"/><path d=" M 328.66 -251.493 L 263.457 -251.493 C 280.068 -260.005 292.77 -272.116 302.454 -286.781 C 341.971 -294.479 359.676 -336.408 359.676 -375 C 359.676 -402.396 347.786 -425.27 332.399 -429.27 C 332.4 -429.478 332.402 -429.685 332.403 -429.892 C 332.403 -433.323 331.333 -436.754 329.194 -439.498 C 327.055 -442.243 324.381 -443.616 321.707 -443.616 L 75.715 -443.616 C 73.041 -443.616 70.367 -442.243 68.228 -439.498 C 66.089 -436.754 65.019 -433.323 65.019 -429.892 C 65.433 -356.097 75.451 -281.48 133.965 -251.492 L 68.228 -251.492 C 60.741 -251.492 54.324 -243.944 54.324 -233.652 C 54.324 -225.418 58.602 -219.242 66.089 -217.184 L 134.004 -211.008 C 135.608 -211.008 137.213 -209.636 137.747 -207.577 C 140.421 -200.716 145.769 -196.599 151.651 -196.599 L 240.423 -196.599 C 246.305 -196.599 251.653 -200.716 253.792 -207.577 C 254.327 -209.636 255.931 -211.008 257.535 -211.008 L 330.263 -217.184 L 330.798 -217.184 C 338.285 -219.242 342.563 -225.418 342.563 -233.652 C 342.563 -243.259 336.681 -251.493 328.66 -251.493 Z  M 332.403 -414.797 C 341.494 -410.68 348.446 -394.212 348.446 -375 C 348.446 -348.261 338.834 -316.043 312.144 -304.355 C 312.591 -305.329 313.028 -306.311 313.457 -307.3 C 328.309 -340.356 331.365 -380.162 332.403 -414.797 Z  M 75.715 -429.893 L 321.708 -429.893 C 321.173 -337.262 305.664 -251.493 198.712 -251.493 C 91.759 -251.493 76.25 -337.262 75.715 -429.893 Z  M 329.729 -230.908 L 258.07 -224.732 C 252.722 -224.046 247.91 -219.929 245.236 -213.754 C 244.166 -211.696 242.562 -210.323 240.958 -210.323 L 151.652 -210.323 C 150.048 -210.323 148.443 -211.696 147.374 -213.754 C 144.7 -219.929 139.887 -224.046 134.54 -224.732 L 67.694 -230.908 C 65.02 -231.594 65.02 -232.966 65.02 -233.652 C 65.02 -235.711 66.624 -237.77 68.229 -237.77 L 329.194 -237.77 C 330.798 -237.77 332.403 -235.711 332.403 -233.652 C 332.403 -232.966 332.403 -231.594 329.729 -230.908 Z " fill="rgb(255,123,57)"/><g><path d=" M 87.566 -488.495 Q 156.303 -541.49 201.684 -502.507 Q 247.064 -463.524 315.802 -516.519 L 326.434 -508.542 Q 240.481 -448.487 193.297 -492.195 C 146.112 -535.903 97.92 -476.253 98.198 -480.518 L 87.566 -488.495 Z " fill="rgb(255,123,57)"/><path d=" M 127.623 -556.624 Q 173.448 -591.954 203.702 -565.965 Q 233.956 -539.976 279.781 -575.306 L 286.869 -569.988 Q 229.567 -529.952 198.111 -559.09 C 166.655 -588.229 134.526 -548.462 134.712 -551.306 L 127.623 -556.624 Z " fill="rgb(255,123,57)"/></g></g></g></g></svg>