<?xml version="1.0" encoding="UTF-8" standalone="no"?><!-- Generator: Gravit.io --><svg xmlns="http://www.w3.org/2000/svg" xmlns:xlink="http://www.w3.org/1999/xlink" style="isolation:isolate" viewBox="0 0 512 512" width="512pt" height="512pt"><defs><clipPath id="_clipPath_eJG7vGXXIA4cz94T8cz2qDSBYLKjUthf"><rect x="0" y="0" width="512" height="512"/></clipPath></defs><g clip-path="url(#_clipPath_eJG7vGXXIA4cz94T8cz2qDSBYLKjUthf)"><clipPath id="_clipPath_5vAuUdbD5zM9RcsnueHweA16FnPFpRnG"><rect x="0" y="0" width="512" height="512" transform="matrix(1,0,0,1,0,0)" fill="rgb(255,255,255)"/></clipPath><g clip-path="url(#_clipPath_5vAuUdbD5zM9RcsnueHweA16FnPFpRnG)"><clipPath id="_clipPath_wMbJIUKxrAE3FVcLXi3SR2YzO9pwHAVR"><rect x="51.2" y="51.2" width="409.6" height="409.6" transform="matrix(1,0,0,1,0,0)" fill="rgb(255,255,255)"/></clipPath><g clip-path="url(#_clipPath_wMbJIUKxrAE3FVcLXi3SR2YzO9pwHAVR)"><path d=" M 57.406 256 C 57.406 146.393 146.393 57.406 256 57.406 C 365.607 57.406 454.594 146.393 454.594 256 C 454.594 365.607 365.607 454.594 256 454.594 C 146.393 454.594 57.406 365.607 57.406 256 Z " fill="rgb(0,0,0)" vector-effect="non-scaling-stroke" stroke-width="12.8" stroke="rgb(255,123,57)" stroke-linejoin="miter" stroke-linecap="square" stroke-miterlimit="3"/><path d=" M 353.518 354.999 L 301.254 354.999 C 314.569 348.176 324.75 338.469 332.513 326.713 C 364.188 320.543 378.38 286.934 378.38 256 C 378.38 234.04 368.849 215.705 356.515 212.499 C 356.516 212.333 356.518 212.166 356.519 212 C 356.519 209.25 355.661 206.5 353.946 204.3 C 352.232 202.1 350.089 201 347.945 201 L 150.766 201 C 148.623 201 146.48 202.1 144.765 204.3 C 143.051 206.5 142.193 209.25 142.193 212 C 142.525 271.152 150.555 330.962 197.457 355 L 144.765 355 C 138.764 355 133.62 361.05 133.62 369.3 C 133.62 375.9 137.049 380.85 143.051 382.5 L 197.489 387.45 C 198.775 387.45 200.061 388.55 200.489 390.2 C 202.633 395.7 206.919 399 211.634 399 L 282.79 399 C 287.505 399 291.792 395.7 293.507 390.2 C 293.936 388.55 295.221 387.45 296.507 387.45 L 354.804 382.5 L 355.232 382.5 C 361.234 380.85 364.663 375.9 364.663 369.3 C 364.663 361.599 359.948 354.999 353.518 354.999 Z  M 356.519 224.1 C 363.806 227.4 369.378 240.6 369.378 256 C 369.378 277.433 361.674 303.258 340.28 312.627 C 340.638 311.846 340.989 311.059 341.332 310.266 C 353.237 283.77 355.686 251.862 356.519 224.1 Z  M 150.766 212 L 347.946 212 C 347.517 286.249 335.086 354.999 249.356 354.999 C 163.627 354.999 151.195 286.249 150.766 212 Z  M 354.375 371.499 L 296.936 376.45 C 292.649 377 288.792 380.299 286.648 385.249 C 285.791 386.899 284.505 388 283.219 388 L 211.635 388 C 210.349 388 209.063 386.899 208.206 385.249 C 206.062 380.299 202.204 377 197.918 376.45 L 144.337 371.499 C 142.193 370.949 142.193 369.85 142.193 369.299 C 142.193 367.65 143.479 365.999 144.766 365.999 L 353.946 365.999 C 355.232 365.999 356.519 367.649 356.519 369.299 C 356.519 369.85 356.519 370.949 354.375 371.499 Z " fill="rgb(255,123,57)"/><g><path d=" M 160.266 165.026 Q 215.363 122.548 251.739 153.795 Q 288.114 185.042 343.212 142.563 L 351.734 148.957 Q 282.837 197.095 245.016 162.061 C 207.195 127.026 168.565 174.839 168.788 171.42 L 160.266 165.026 Z " fill="rgb(255,123,57)"/><path d=" M 192.374 110.417 Q 229.106 82.097 253.356 102.929 Q 277.607 123.761 314.339 95.441 L 320.02 99.704 Q 274.089 131.796 248.875 108.44 C 223.66 85.083 197.908 116.959 198.056 114.679 L 192.374 110.417 Z " fill="rgb(255,123,57)"/></g></g></g></g></svg>